<?xml version="1.0" encoding="UTF-8"?>
<svg version="1.1" viewBox="0 0 512 512" xml:space="preserve" xmlns="http://www.w3.org/2000/svg" style="fill:#0B345A;">
		<polygon points="448 224 448 160 416 160 416 224 352 224 352 256 416 256 416 320 448 320 448 256 512 256 512 224"/>
		<path d="m160 224v64h90.528c-13.216 37.248-48.8 64-90.528 64-52.928 0-96-43.072-96-96s43.072-96 96-96c22.944 0 45.024 8.224 62.176 23.168l42.048-48.256c-28.8-25.088-65.792-38.912-104.22-38.912-88.224 0-160 71.776-160 160s71.776 160 160 160 160-71.776 160-160v-32h-160z"/>
</svg>
