<svg xmlns="http://www.w3.org/2000/svg" width="510" height="510" viewBox="0 0 510 510" style="fill:#FFFFFF;"><path d="M459 0H51C23 0 0 23 0 51v408c0 28.1 23 51 51 51h408c28.1 0 51-22.9 51-51V51C510 23 487.1 0 459 0zM153 433.5H76.5V204H153V433.5zM114.8 160.7c-25.5 0-45.9-20.4-45.9-45.9s20.4-45.9 45.9-45.9 45.9 20.4 45.9 45.9S140.3 160.7 114.8 160.7zM433.5 433.5H357V298.4c0-20.4-17.8-38.2-38.2-38.2s-38.2 17.9-38.2 38.3V433.5H204V204h76.5v30.6c12.8-20.4 40.8-35.7 63.8-35.7 48.5 0 89.3 40.8 89.3 89.3V433.5z"/></svg>
