<svg xmlns="http://www.w3.org/2000/svg" viewBox="0 0 512 512"><path d="M103.6 259.1l-42.7-42.7c-4.2-4.2-10.9-4.2-15.1 0L3.1 259.1c-4.2 4.2-4.2 10.9 0 15.1 4.2 4.2 10.9 4.2 15.1 0l35.1-35.1 35.1 35.1c2.1 2.1 4.8 3.1 7.6 3.1s5.5-1 7.6-3.1C107.7 270 107.7 263.2 103.6 259.1z"/><path d="M103.5 323.1c-4.2-4.2-10.9-4.2-15.1 0l-35.1 35.1 -35.1-35.1c-4.2-4.2-10.9-4.2-15.1 0 -4.2 4.2-4.2 10.9 0 15.1l42.7 42.7c2.1 2.1 4.8 3.1 7.6 3.1 2.7 0 5.5-1 7.5-3.1l42.7-42.7C107.7 334 107.7 327.2 103.5 323.1z"/><path d="M53.3 213.3c-5.9 0-10.7 4.8-10.7 10.7v149.3c0 5.9 4.8 10.7 10.7 10.7s10.7-4.8 10.7-10.7V223.9C64 218.1 59.2 213.3 53.3 213.3z"/><path d="M471.2 146.9L370.4 46.2c-18.9-18.9-49.6-18.9-68.4 0 -7.4 7.4-11.8 16.5-13.5 26 -18.8-12.7-44.6-10.6-61.2 6 -7 6.9-11.5 15.6-13.3 25 -18.4-16.7-49-16.1-66.7 1.6 -7.1 7.1-11.5 15.8-13.3 25l-35.8-35.8C84.4 80.2 70.2 72.3 56 70.6c-13.8-1.7-26.9 2.9-36.8 12.8 -9.2 9.1-14.2 21.3-14.2 34.2 0 12.9 5 25.1 14.2 34.2l176.6 176.6L95.2 385.6c-26.1 14-38.1 45.4-28 73.3 2.9 8 8.8 14.5 16.5 18.1 4.3 2 8.9 3 13.5 3 3.6 0 7.2-0.6 10.7-1.8l165.2-50.4c25.1-7.7 51.1-11.5 77.4-11.5 31.3 0 60.8-12.2 83-34.4l37.7-37.7c26.3-26.3 40.8-61.3 40.8-98.6C512 208.3 497.5 173.3 471.2 146.9zM456.1 329.1l-37.7 37.7c-18.1 18.1-42.2 28.1-67.9 28.1 -28.4 0-56.5 4.2-83.6 12.5l-165.5 50.5c-0.2 0-0.4 0.1-0.5 0.2 -2.7 1-5.6 0.9-8.1-0.4 -2.6-1.2-4.5-3.3-5.5-6 -6.5-17.9 1.2-38.2 18.3-47.3l113-64.3c2.9-1.6 4.9-4.6 5.3-7.9s-0.7-6.6-3-9L34.2 136.7c-5.1-5.1-7.9-11.9-7.9-19.1 0-7.2 2.8-14 7.9-19.1 4.6-4.6 10-6.8 16.1-6.8 9.9 0 21.3 5.9 32.8 17.5l122.7 122.7c4.2 4.2 10.9 4.2 15.1 0 2.1-2.1 3.1-4.8 3.1-7.6 0-2.7-1-5.5-3.1-7.6l-58.5-58.5c-10.5-10.5-10.5-27.7 0-38.3 10.5-10.5 27.7-10.5 38.3 0l58.5 58.5c4.2 4.2 10.9 4.2 15.1 0 2.1-2.1 3.1-4.8 3.1-7.6s-1-5.5-3.1-7.5l-31.8-31.8c-10.5-10.5-10.5-27.7 0-38.3 10.5-10.5 27.7-10.5 38.3 0l31.8 31.8c4.2 4.2 10.9 4.2 15.1 0 2.1-2.1 3.1-4.8 3.1-7.6 0-2.7-1-5.5-3.1-7.6l-10.5-10.5c-10.5-10.5-10.5-27.7 0-38.3 10.5-10.5 27.7-10.5 38.3 0l100.8 100.8c22.3 22.3 34.6 52 34.6 83.5C490.7 277.1 478.4 306.7 456.1 329.1z"/></svg>
