<svg xmlns="http://www.w3.org/2000/svg" viewBox="0 0 490.7 490.7"><path d="M437.3 42.7h-128c-5.9 0-10.7 4.8-10.7 10.7s4.8 10.7 10.7 10.7h128c5.9 0 10.7-4.8 10.7-10.7S443.2 42.7 437.3 42.7z"/><path d="M444.9 45.8L402.2 3.1c-4.2-4.2-10.9-4.2-15.1 0 -4.2 4.2-4.2 10.9 0 15.1l35.1 35.1 -35.1 35.1c-4.2 4.2-4.2 10.9 0 15.1 2.1 2.1 4.8 3.1 7.6 3.1 2.7 0 5.5-1 7.6-3.1l42.7-42.7C449 56.7 449 49.9 444.9 45.8z"/><path d="M160 42.7h-128c-5.9 0-10.7 4.8-10.7 10.7s4.8 10.7 10.7 10.7h128c5.9 0 10.7-4.8 10.7-10.7S165.9 42.7 160 42.7z"/><path d="M47.1 53.3l35.1-35.1c4.2-4.2 4.2-10.9 0-15.1 -4.2-4.2-10.9-4.2-15.1 0L24.4 45.8c-4.2 4.2-4.2 10.9 0 15.1l42.7 42.7c2.1 2.1 4.8 3.1 7.6 3.1 2.7 0 5.5-1 7.5-3.1 4.2-4.2 4.2-10.9 0-15.1L47.1 53.3z"/><path d="M426.7 213.3c-8.8 0-16.9 2.7-23.7 7.2 -5.8-16.6-21.7-28.5-40.3-28.5 -8.8 0-16.9 2.7-23.7 7.2 -5.8-16.6-21.7-28.5-40.3-28.5 -7.8 0-15.1 2.1-21.3 5.7v-69.7c0-23.5-19.1-42.7-42.7-42.7 -23.5 0-42.7 19.1-42.7 42.7v181.3l-37.1-27.8c-22-16.5-53.2-14.3-72.7 5.2 -12.5 12.5-12.5 32.8 0 45.2l151.9 151.9c18.1 18.1 42.3 28.1 67.9 28.1h50c64.7 0 117.3-52.6 117.3-117.3V256C469.3 232.5 450.2 213.3 426.7 213.3zM448 373.3c0 52.9-43.1 96-96 96h-50c-20 0-38.7-7.8-52.8-21.9L97.3 295.5c-4.2-4.2-4.2-10.9 0-15.1 6.6-6.6 15.4-10 24.3-10 7.2 0 14.5 2.2 20.5 6.8l54.1 40.6c3.2 2.4 7.6 2.8 11.2 1 3.6-1.8 5.9-5.5 5.9-9.5V106.7c0-11.8 9.6-21.3 21.3-21.3s21.3 9.6 21.3 21.3v160c0 5.9 4.8 10.7 10.7 10.7s10.7-4.8 10.7-10.7v-53.3c0-11.8 9.6-21.3 21.3-21.3s21.3 9.6 21.3 21.3v53.3c0 5.9 4.8 10.7 10.7 10.7 5.9 0 10.7-4.8 10.7-10.7v-32c0-11.8 9.6-21.3 21.3-21.3s21.3 9.6 21.3 21.3v32c0 5.9 4.8 10.7 10.7 10.7 5.9 0 10.7-4.8 10.7-10.7v-10.7c0-11.8 9.6-21.3 21.3-21.3s21.3 9.6 21.3 21.3V373.3z"/></svg>
