<svg xmlns="http://www.w3.org/2000/svg" viewBox="0 0 490.7 490.7"><path d="M416 213.3c-8.8 0-16.9 2.7-23.7 7.2C386.4 203.9 370.6 192 352 192c-8.8 0-16.9 2.7-23.7 7.2 -5.8-16.6-21.7-28.5-40.3-28.5 -7.8 0-15.1 2.1-21.3 5.7v-69.7c0-23.5-19.1-42.7-42.7-42.7 -23.5 0-42.7 19.1-42.7 42.7V288l-37.1-27.8c-22-16.5-53.3-14.3-72.7 5.2 -12.5 12.5-12.5 32.8 0 45.2l151.9 151.9c18.1 18.1 42.2 28.1 67.9 28.1h50c64.7 0 117.3-52.6 117.3-117.3V256C458.7 232.5 439.5 213.3 416 213.3zM437.3 373.3c0 52.9-43.1 96-96 96h-50c-19.9 0-38.7-7.8-52.8-21.9L86.6 295.5c-4.2-4.2-4.2-10.9 0-15.1 6.6-6.6 15.4-10 24.3-10 7.2 0 14.4 2.2 20.5 6.8l54.1 40.6c3.2 2.4 7.6 2.8 11.2 1 3.6-1.8 5.9-5.5 5.9-9.5V106.7c0-11.8 9.6-21.3 21.3-21.3 11.8 0 21.3 9.6 21.3 21.3v160c0 5.9 4.8 10.7 10.7 10.7s10.7-4.8 10.7-10.7v-53.3c0-11.8 9.6-21.3 21.3-21.3 11.8 0 21.3 9.6 21.3 21.3v53.3c0 5.9 4.8 10.7 10.7 10.7s10.7-4.8 10.7-10.7v-32c0-11.8 9.6-21.3 21.3-21.3s21.3 9.6 21.3 21.3v32c0 5.9 4.8 10.7 10.7 10.7s10.7-4.8 10.7-10.7V256c0-11.8 9.6-21.3 21.3-21.3s21.3 9.6 21.3 21.3V373.3z"/><path d="M224 21.3c-47.1 0-85.3 38.3-85.3 85.3 0 14.2 3.7 28.1 11 41.3 2 3.5 5.6 5.5 9.3 5.5 1.7 0 3.5-0.4 5.2-1.3 5.1-2.9 7-9.4 4.1-14.5 -5.5-9.9-8.3-20.4-8.3-30.9 0-35.3 28.7-64 64-64s64 28.7 64 64c0 5.1-0.8 10.4-2.5 16.7 -1.6 5.7 1.8 11.5 7.5 13.1 5.6 1.6 11.5-1.8 13.1-7.5 2.2-8.2 3.3-15.3 3.3-22.4C309.3 59.6 271.1 21.3 224 21.3z"/><path d="M85.3 0c-5.9 0-10.7 4.8-10.7 10.7v170.7c0 5.9 4.8 10.7 10.7 10.7s10.7-4.8 10.7-10.7V10.7C96 4.8 91.2 0 85.3 0z"/><path d="M135.5 131.1c-4.2-4.2-10.9-4.2-15.1 0l-35.1 35.1L50.2 131.1c-4.2-4.2-10.9-4.2-15.1 0 -4.2 4.2-4.2 10.9 0 15.1l42.7 42.7c2.1 2.1 4.8 3.1 7.6 3.1s5.5-1 7.5-3.1l42.7-42.7C139.7 142.1 139.7 135.3 135.5 131.1z"/></svg>
