<svg xmlns="http://www.w3.org/2000/svg" viewBox="0 0 512 512"><path d="M481.5 229l-80.2-88.1c-15.4-15.4-42.1-15.5-57.7 0.1 -5.1 5.1-8.5 11.1-10.3 17.6 -15.6-11.9-39.3-10.6-53.7 3.7 -5.1 5.1-8.5 11.1-10.3 17.6 -15.5-11.9-39.3-10.6-53.7 3.7 -5 5-8.4 10.9-10.2 17.2l-37.8-37.8c-15.9-15.9-41.7-15.9-57.8 0.1 -15.9 15.9-15.9 41.7 0 57.6l145.2 145.2 -86.1 13.5C145.6 382.9 128 403.1 128 426.7c0 17.6 14.4 32 32 32h201.2c31.3 0 60.8-12.2 83-34.4l33.5-33.6c22.1-22.1 34.3-51.6 34.3-82.9C512 278.6 501.2 250.6 481.5 229zM462.6 375.7l-33.5 33.6c-18.2 18.1-42.3 28.1-67.9 28.1H160c-5.9 0-10.7-4.8-10.7-10.7 0-13 9.7-24.1 22.7-26l107-16.8c4-0.6 7.2-3.4 8.5-7.2 1.2-3.8 0.2-8-2.6-10.8L124.8 205.7c-7.6-7.6-7.6-19.9 0.1-27.6 3.8-3.8 8.8-5.7 13.7-5.7 5 0 9.9 1.9 13.7 5.7L215 240.8c0.1 0.2 0.3 0.3 0.5 0.5l43.6 43.6c4.2 4.2 10.9 4.2 15.1 0 4.2-4.2 4.2-10.9 0-15.1l-44-44c-7.2-7.6-7.1-19.6 0.5-27.2 7.3-7.3 20.1-7.3 27.4 0l21 21c0.1 0.1 0.2 0.3 0.4 0.4l22.3 22.3c4.2 4.2 10.9 4.2 15.1 0 4.2-4.2 4.2-10.9 0-15.1l-22.5-22.5c-7.3-7.6-7.2-19.7 0.4-27.3 7.3-7.3 20.1-7.3 27.4 0l22.3 22.4c0 0 0 0 0 0l0 0c0.2 0.1 0.1 0.1 0.1 0 0 0 0 0 0 0 0 0 0 0 0 0 0 0 0 0 0 0h0c0 0 0 0 0 0 4.2 3.9 10.8 3.8 14.8-0.3 4.1-4.2 4.1-10.9 0-15.1l-1.3-1.3c-7.2-7.6-7.1-19.7 0.5-27.2 7.3-7.3 20.4-7 27.1-0.4l79.9 87.8c16.1 17.7 25 40.6 25 64.5C490.7 333.5 480.7 357.6 462.6 375.7z"/><path d="M344.6 199.8h0c0 0 0 0 0 0C344.6 199.8 344.6 199.8 344.6 199.8z"/><path d="M226.1 152.6c-15.6-34.4-49.8-56.6-87.4-56.6 -52.9 0-96 43.1-96 96 0 37.5 22.2 71.9 56.6 87.4 1.4 0.6 2.9 0.9 4.4 0.9 4.1 0 7.9-2.3 9.7-6.3 2.4-5.4 0-11.7-5.3-14.1C81.3 247.9 64 221.2 64 192c0-41.2 33.5-74.7 74.7-74.7 29.2 0 55.9 17.3 67.9 44.1 2.4 5.4 8.7 7.8 14.1 5.3C226.1 164.3 228.5 158 226.1 152.6z"/><path d="M272.5 156.4C256.4 95.7 201.4 53.3 138.7 53.3 62.2 53.3 0 115.6 0 192c0 62.7 42.4 117.8 103 133.9 0.9 0.3 1.8 0.4 2.7 0.4 4.7 0 9-3.1 10.3-7.9 1.5-5.7-1.9-11.5-7.6-13.1 -51.3-13.6-87.2-60.2-87.2-113.3 0-64.7 52.7-117.3 117.3-117.3 53 0 99.6 35.8 113.3 87.2 1.5 5.7 7.1 9.1 13.1 7.6C270.7 167.9 274 162.1 272.5 156.4z"/></svg>
